Patient4_TMGait_0pt3_02_left_26_EMG.mot
version=1
nRows=19
nColumns=33
inDegrees=no
endheader
time	1LAddLong	2LGlutMax	3LGlutMed	4LIliopsoas	5LSemiMemb	6LBicFemLong	7LRecFem	8LVastMed	9LVastLat	10LGasMed	11LTibAnt	12lTibPost	13LPeroneusLong	14LSol	15LExtDigLong	16LFlexDigLong	17RAddLong	18RGlutMax	19RGlutMed	20RIliopsoas	21RSemiMemb	22RBicFemLong	23RRecFem	24RVastMed	25RVastLat	26RGasMed	27RTibAnt	28RTibPost	29RPeroneusLong	30RSol	31RExtDigLong	32RFlexDigLong
52.995	0.017395	-0.028534	-0.027466	-0.009766	-0.004883	0.011749	-0.00946	0.005188	-0.06897	-0.069885	-0.011902	0.007172	0.02533	-0.041809	0.068665	0.020142	0.036774	-0.044708	-0.51193	0.17487	-0.058289	-0.02533	0.34241	0.42755	-0.5275	0.067139	-0.099792	-0.027924	0.79865	-0.1857	-0.007629	0.002594
52.996	0.004883	-0.031891	-0.030212	0.003357	-0.006256	0.000305	-0.003967	0.005035	-0.066376	-0.06073	-0.063324	0.012817	0.039673	-0.005646	0.11719	0.001373	0.037537	-0.001068	-0.21561	0.08667	0.033417	0.011597	0.22385	0.25406	-0.40222	0.023651	-0.016327	-0.062103	-0.38223	-0.52002	-0.001373	-0.012817
52.997	0.006866	-0.016022	-0.024719	0.000916	-0.007629	-0.003967	-0.01236	0.005798	-0.080872	-0.036316	-0.087585	0.004883	-0.006714	-0.000916	0.092316	-0.001373	-0.003967	0.059967	0.59799	-0.022278	0.15198	0.005798	-0.36468	0.17593	-0.056915	-0.026093	-0.071411	-0.098877	0.17136	-0.78095	-0.000916	-0.015259
52.998	0.005341	-0.001678	-0.035858	-0.005493	-0.008392	0.001984	0.011902	0.005035	-0.085144	-0.059814	0.028534	0.00412	-0.043488	-0.010071	0.088196	-0.005798	-0.018311	0.086212	0.63995	-0.098419	0.1059	-0.014343	-0.68237	0.22507	-0.042572	-0.050812	-0.042419	-0.048218	-0.58197	-0.72418	-0.003204	-0.01709
52.999	0.005493	-0.027924	0.049744	0.012512	-0.020447	-0.00824	0.01236	0.003357	-0.088654	-0.061188	0.069427	0.006866	-0.019989	-0.028381	0.017395	-0.004578	-0.030823	0.072937	0.51712	-0.26779	0.049133	-0.021515	-0.47302	0.24017	-0.11612	-0.056305	-0.03006	-0.087891	-0.66437	-0.096741	-0.002136	-0.01709
53	0.001984	-0.014496	0.035706	-0.004578	-0.017242	0.031433	-0.00824	0.001678	-0.093689	-0.036163	0.055542	0.007019	-0.013123	-0.047302	-0.033569	-0.007629	-0.068054	0.030365	-0.14999	-0.17136	-0.043335	0.05249	-0.33066	0.21942	-0.083008	-0.052643	-0.040741	-0.20294	0.50781	-0.14572	-0.001831	-0.018616
53.001	-0.004578	-0.023499	0.016785	0.012207	-0.007019	0.045776	0.00885	0.003662	-0.086975	-0.012512	0.056152	0.00351	-0.009003	-0.018158	-0.042267	0.00412	-0.049744	-0.002289	-0.38193	-0.18738	0.006561	0.021057	-0.24841	0.52536	0.013733	-0.04303	-0.052643	0.11856	1.2521	-0.29388	-0.003967	-0.021057
53.002	-0.006866	-0.010223	0.016937	0.022278	-0.008392	0.047302	-0.005341	0.005951	-0.088043	0.011902	0.039825	0.009918	0.000458	-0.045929	0.016174	-0.00885	-0.009003	0.080719	0.1535	-0.093384	0.015717	-0.098724	-0.21393	0.74814	0.067444	-0.03952	-0.017395	-0.10651	1.2112	0.095367	0.000458	-0.016632
53.003	-0.004883	-0.01297	-0.013885	0.032196	-0.010834	0.044708	0.000458	0.008087	-0.083008	-0.013123	0.008087	0.001984	0.003052	-0.03479	0.070648	0.001221	0.035706	0.1506	-0.19486	0.14923	0.006866	-0.11841	-0.23056	0.25024	0.055084	-0.030975	0.019836	0.056152	-0.061646	0.14481	-0.006409	-0.012512
53.004	0.001984	-0.027771	0.006104	0.028534	-0.00824	0.030518	-0.006866	0.008087	-0.078735	-0.02533	-0.004883	0.007324	0.009003	-0.03067	0.015869	-0.007172	0.068207	0.039368	0.18646	0.41306	0.001068	-0.10422	-0.15106	-0.44952	0.21088	-0.011444	0.021515	0.25055	-0.084991	0.57587	-0.003357	-0.003357
53.005	0.008392	-0.021667	-0.006104	0.004578	-0.010681	0.019531	-0.009613	0.005493	-0.068665	-0.031433	-0.016174	0.005341	-0.003052	-0.033417	-0.049133	0.005188	0.093536	0.08606	0.22049	0.37338	-0.093994	-0.043488	-0.21713	-0.84961	0.45059	-0.005493	-0.057983	0.059204	0.46234	0.82825	0.00061	0.004272
53.006	0.007629	-0.000458	-0.012512	0.012512	-0.009308	0.022278	-0.006409	-0.004578	-0.074005	-0.032043	-0.024719	0.005951	-0.000305	-0.031281	-0.047455	-0.007629	0.059814	0.13626	0.06958	0.21942	-0.18372	0.055389	-0.71533	-0.67276	0.58655	0.003357	-0.098114	0.005188	0.22781	0.5455	-0.002899	-0.002289
53.007	0.010681	-0.02182	-0.021973	0.010681	-0.006866	0.020905	-0.018463	0.006866	-0.065613	-0.005798	-0.015717	0.006714	-0.02182	-0.036011	-0.006104	-0.008698	0.006561	0.15167	0.16769	0.10376	-0.19775	0.04776	-0.7373	-0.46356	0.55725	-0.006104	0.006866	-0.009766	0.27313	0.3865	-0.00473	0.000305
53.008	0.006409	-0.00946	-0.032196	0.009613	-0.004883	0.016785	0.003052	-0.000458	-0.068054	-0.035095	-0.000763	0.005188	-0.016479	-0.031738	-0.02655	0.002441	-0.011292	0.23636	0.74173	-0.13519	-0.094604	0.029602	-0.46814	-0.4042	0.5336	0	0.0177	-0.011749	-0.28564	0.15823	-0.009918	0.000458
53.009	0.003662	-0.01297	-0.030518	0.002594	-0.010223	0.01297	-0.01358	0.003662	-0.080261	-0.030212	0.027771	0.001831	-0.024109	-0.003052	0.007782	-0.00473	-0.020905	0.26901	0.84991	-0.35675	-0.051422	0.010986	-0.082703	-0.36072	0.54367	-0.005646	0.075989	-0.018158	-0.25467	-0.09552	-0.003052	0.000305
53.01	0.000763	0.019989	-0.010986	-0.006714	-0.005188	-0.013123	0	0.003204	-0.08255	-0.019226	0.037537	0.007629	-0.018463	-0.011902	0.005035	-0.005798	-0.008087	0.20508	1.2399	-0.31967	-0.16464	-0.04776	0.18784	-0.29282	0.42099	-0.001221	0.075989	-0.021515	-0.31967	-0.18005	-0.003815	0.006104
53.011	0.014343	-0.016632	0.008087	0.001678	0.001831	0.013733	-0.005646	0.006561	-0.069427	-0.036774	0.016479	0.00351	-0.02121	-0.005035	0.00412	0.001373	-0.011139	0.10666	0.68161	-0.093384	0.35782	-0.10742	0.13901	-0.091095	0.29159	-0.006714	0.072937	-0.022736	-0.16373	-0.13534	-0.00824	-0.001678
53.012	0.001373	-0.002747	-0.01236	0.012207	-0.021362	0.000153	-0.019989	0.001068	-0.06958	-0.040436	0.014496	0.003204	-0.016327	0.013123	-0.031586	-0.009308	-0.027313	0.037079	-0.14999	0.14358	0.26032	-0.08728	0.09903	0.20767	0.15625	-0.00061	0.059662	-0.027924	-0.35187	-0.048065	-0.002441	-0.003967
53.013	0.003967	0.002441	-0.029907	0.01358	-0.002747	-0.00061	0.001678	-0.001678	-0.084381	-0.05661	0.014191	0.001678	-0.012665	-0.001221	-0.05661	-0.004578	-0.013885	0.008087	-0.37064	0.25833	0.10315	-0.076447	0.10574	0.21515	0.021057	-0.000458	0.066071	-0.025482	-0.37079	0.016785	0.000458	-0.001831
